<?xml version="1.0" encoding="UTF-8"?>
<svg id="Layer_1" data-name="Layer 1" xmlns="http://www.w3.org/2000/svg" viewBox="0 0 802.55 814.71">
  <defs>
    <style>
      .cls-1 {
        fill: #fff;
      }
    </style>
  </defs>
  <g id="_000000ff" data-name="#000000ff">
    <path class="cls-1" d="M336.98,5.65c46.97-7.3,94.93-7.18,142.08-1.6,43.16,5.58,85.65,17.42,124.86,36.43,34.43,16.65,66.17,38.77,93.97,65.01,25.81,24.49,48.33,52.76,64.7,84.42,28.14,52.34,40.19,112.24,39.95,171.36,.22,50.98-8.15,102.8-30.43,149-15.68,32.29-37.82,61.75-65.85,84.32-24.53,19.74-54.68,32.59-86.09,35.6-21.88,2.05-44.5,1.03-65.39-6.31-14.13,8.42-32.01,10.05-47.42,4.3-13.55-4.81-24.87-15.67-29.97-29.14-6.64-17.51-1.83-38.82,12.23-51.34,19.63-19.47,55.1-19.33,74.37,.61,3.42,3.01,5.58,7.09,8.6,10.46,8.43,8.92,20.32,14.27,32.56,14.97,16.67,.9,33.61-3.01,48.11-11.31,22.7-12.38,38.68-33.9,50.84-56.18,16.17-30.19,24.39-64.06,27.86-97.96,3.16-32.57,2.86-65.56-1.77-97.97-4.67-32.34-14.04-64.09-28.75-93.31-15.56-31.02-37.03-59.02-62.59-82.46-25.55-23.43-55.71-41.66-88.05-54.04-36.28-13.99-74.98-20.94-113.71-23.11-45.16-2.69-91.07,.85-134.41,14.37-22.37,6.73-43.62,16.74-63.88,28.28-45.8,26.89-84.32,65.43-113.24,109.82-31.53,48.48-49.67,105.01-55.1,162.43-4.5,47.21-2.39,95.25,8.24,141.53,9.16,39.35,25.28,77.21,48.52,110.33,22.34,31.83,50.63,59.56,83.29,80.73,31.01,20.1,65.83,34.01,101.84,42.1,33.98,7.75,68.96,10.43,103.75,9.89,59.24-.78,119.01-8.84,174.65-29.88,8.8-3.22,17.31-7.14,25.9-10.85,.13,20.56-.02,41.12,.08,61.68-38.99,16.66-80.69,26.2-122.65,31.47-31.84,4-63.94,5.48-96.01,5.41-38.88-.32-77.86-4.32-115.64-13.72-34.73-8.55-68.38-21.72-99.34-39.68-56.52-32.84-104.07-81.16-135.58-138.47-17.46-31.77-29.81-66.24-37.39-101.67C.08,473.97-2.02,425.28,1.75,377.24c2.93-36,9.76-71.75,21.28-106,10.93-32.72,26.18-63.98,45.28-92.71,35.31-52.75,82.56-97.89,138.14-128.81C246.8,27.25,291.37,12.69,336.98,5.65Z"/>
    <path class="cls-1" d="M570.58,202.84c3.92-6.35,14.31-6.6,18.76-.74,2.17,3.24,1.88,7.35,1.52,11.05,8.71-1.87,17.51-3.36,26.12-5.66,13.7-2.86,27.46-5.42,41.15-8.32,3.83-.8,8.1-.64,11.48,1.56,5.87,3.84,6.1,14.38-.84,17.28-6.87,2.88-14.54,3.08-21.66,5.22-19.17,4.28-38.51,7.79-57.73,11.8-2.88,25.33-3.46,50.86-6.2,76.2-.91,13.08-1.88,26.16-2.79,39.25-.47,7.1,.15,14.24-.29,21.34-.42,.25-1.25,.76-1.67,1.01-1.1,16.84-2.42,33.67-3.51,50.52-2.36,21.62-3.19,43.39-5.06,65.06-1.33,10.1-1.47,20.32-2.54,30.44-.83,5.56-7.34,7.75-12.26,7.66-120.64,0-241.28-.01-361.92,0-4.19,.05-8.82-1.34-11.27-4.94-2.25-4.38-1.57-10.71,2.71-13.62,2.42-1.81,5.44-2.69,8.45-2.57,116.34,.06,232.69-.04,349.03,.05,1.21-.32,3.89,.66,4.02-1.22,.84-11.77,1.78-23.55,2.52-35.33-109.51,.06-219.02,.01-328.53,.02-11.12-.06-22.23,.13-33.34-.09-1.7-10.58-4.22-21.01-5.74-31.62-2.72-11.14-3.81-22.6-6.54-33.74-3.85-22.79-8.62-45.4-12.46-68.2-2.76-11.89-4.18-24.04-6.96-35.92-1.3-10.85-4.56-21.36-5.54-32.24,13.36-2.55,26.99-3.5,40.46-5.39,25.32-3.27,50.72-6.08,76-9.65,26.58-3.67,53.26-6.61,79.87-10.05,13.36-1.8,26.81-3,40.08-5.38,33.9-4.08,67.78-8.37,101.66-12.58,26.77-4.04,53.74-6.78,80.58-10.36,.2-3.7,.05-7.74,2.44-10.84m-25.39,35.37c-18.23,2.43-36.52,4.46-54.75,6.87,.75,35.24,1.79,70.47,2.8,105.7,21.46,.06,42.92,0,64.38,.03,1.13-11.5,1.31-23.08,2.81-34.54,1-12.34,1.79-24.7,2.66-37.04,.85-14.71,2.62-29.33,3.49-44.03-7.12,1.09-14.32,1.62-21.39,3.01m-117.14,14.96c-23.88,2.88-47.73,5.93-71.61,8.82,1.14,19.76,2.41,39.52,3.68,59.27,1.21,9.79,1.39,19.67,2.13,29.5,36.17,.09,72.34,.04,108.51,.02-.19-14.83-.54-29.68-1.48-44.48-.41-19.47-1-38.94-1.48-58.41-13.26,1.68-26.57,3.04-39.75,5.28m-174.9,21.93c1.47,25.28,4.59,50.41,6.05,75.69,26.77,.03,53.54-.02,80.32,.03-.52-11.82-1.52-23.61-2.1-35.43-1.78-16.79-2.32-33.69-3.51-50.53-26.87,3.75-53.8,7.12-80.76,10.24m-77.72,10.09c3.92,21.89,8.26,43.7,12.19,65.58,16.32,.05,32.65,.05,48.98,0-1.16-14.14-2.19-28.29-3.31-42.43-.71-10.15-2.28-20.22-2.66-30.39-18.43,2.23-36.74,5.23-55.2,7.24m16.22,87.03c.97,4.98,1.67,10.01,2.92,14.93,1.86,9.22,2.97,18.59,5.24,27.74,1.67,11.02,4.08,21.9,6.06,32.86,13.04-.02,26.07,.07,39.1-.04-1.52-14.13-1.93-28.37-3.8-42.46-.84-10.97-1.65-21.93-2.58-32.89-15.65-.07-31.29,.06-46.94-.14m69.56,.22c1.62,16.97,2.59,33.99,4.17,50.96,1.18,8.08,1.38,16.25,2.19,24.36,26.19-.01,52.38,.01,78.58-.01-2.18-25.15-2.74-50.44-5.34-75.56-26.52,.39-53.07-.07-79.6,.25m102.42-.09c.28,5.63,.76,11.25,1.02,16.88,1.94,19.45,2.62,39.01,3.98,58.52,34.92,.03,69.83-.02,104.74,.03-.45-25.14-1.3-50.27-1.91-75.4-35.95-.08-71.88-.03-107.83-.03m130.47,.02c.57,25.13,1.6,50.25,1.8,75.38,18.16,.03,36.33-.02,54.5,.03,2.13-25.11,3.17-50.31,5.81-75.37-20.7-.2-41.41-.04-62.11-.04Z"/>
    <path class="cls-1" d="M252.65,556.19c7.05-.98,14.5-.99,21.25,1.55,6.24,2.52,12.19,6,16.86,10.92,8.45,9.17,12.23,22.68,8.64,34.78-2.85,9.07-8.78,17.33-17.14,22.07-17.01,10.75-41.76,6.88-54.14-9.17-6.82-8.36-9.32-19.69-7.21-30.21,3.17-15.28,16.74-26.92,31.74-29.94Z"/>
  </g>
</svg>